<svg width="90.709" height="90.709" version="1.1" viewBox="0 0 24 24" xmlns="http://www.w3.org/2000/svg">
 <g transform="matrix(.49184 0 0 .49184 1.6852 7.5403)" fill="none" stroke-width="3.6514" aria-label="JM">
  <path d="m7.1549 18.542q-1.6991 0-3.139-0.80634-1.4111-0.80634-2.2462-2.2174-0.25918-0.40317-0.25918-0.77754 0-0.54716 0.43197-0.92153 0.43197-0.40317 0.89274-0.40317 0.63355 0 1.2959 0.71995 1.1231 1.6703 3.0238 1.6703 1.5839 0 2.6782-1.0655 1.0943-1.0655 1.0943-2.6206v-12.642q0-0.57596 0.43197-0.97913t1.0079-0.40317q0.63355 0 1.0079 0.40317 0.40317 0.37437 0.40317 0.97913v12.642q0 1.7567-0.86394 3.2254-0.86394 1.4687-2.3902 2.3326-1.4975 0.86394-3.3694 0.86394z" stroke="#407dff"/>
  <path d="m38.186-1.4165q0.57596 0.028798 0.97913 0.43197 0.40317 0.37437 0.40317 0.95033v17.423q0 0.57596-0.40317 0.97913-0.37437 0.40317-1.0079 0.40317-0.63355 0-1.0367-0.37437-0.40317-0.40317-0.40317-1.0079v-13.333l-5.5868 8.4666q-0.20159 0.25918-0.51836 0.43197-0.28798 0.17279-0.60476 0.14399-0.28798 0.0288-0.60476-0.14399-0.28798-0.17279-0.48957-0.43197l-5.6156-8.7258v13.593q0 0.60476-0.37437 1.0079-0.34558 0.37437-0.95033 0.37437-0.57596 0-0.95033-0.37437-0.34558-0.40317-0.34558-1.0079v-17.423q0-0.54716 0.40317-0.95033 0.40317-0.43197 1.0079-0.43197 0.34558 0 0.66235 0.17279 0.34558 0.17279 0.54716 0.46077l6.8251 10.338 6.9115-10.338q0.46077-0.63355 1.1519-0.63355z" stroke="#00000e"/>
 </g>
</svg>
